<svg xmlns="http://www.w3.org/2000/svg" viewBox="0 0 512 512" role="img" aria-label="Cupe Beach Living">
  <defs>
    <linearGradient id="bg" x1="70" x2="442" y1="442" y2="70" gradientUnits="userSpaceOnUse">
      <stop offset="0" stop-color="#064f4f"/>
      <stop offset="1" stop-color="#08716c"/>
    </linearGradient>
  </defs>
  <rect width="512" height="512" rx="104" fill="url(#bg)"/>
  <circle cx="256" cy="256" r="150" fill="none" stroke="#f8faf7" stroke-width="16"/>
  <circle cx="190" cy="206" r="24" fill="#e6bd78"/>
  <path d="M128 284c42 9 72-20 112-20s70 30 112 20 53-19 74-6" fill="none" stroke="#f8faf7" stroke-width="13" stroke-linecap="round"/>
  <path d="M130 322c42 9 72-20 112-20s70 30 112 20 51-18 72-6" fill="none" stroke="#f8faf7" stroke-width="13" stroke-linecap="round"/>
  <path d="M152 358c37 5 60-18 98-15 33 3 55 24 94 13" fill="none" stroke="#e6bd78" stroke-width="10" stroke-linecap="round"/>
  <path d="M292 344c17-76 20-136-8-180" fill="none" stroke="#f8faf7" stroke-width="17" stroke-linecap="round"/>
  <path d="M281 170c-31-7-59 6-78 37 36-11 63-7 78 11M286 171c14-31 38-45 74-38-31 16-50 35-58 62M293 168c35-25 72-25 111 1-38 1-68 11-92 31M285 171c-5 38-23 66-55 86 5-38 22-66 55-86M286 171c27 25 40 55 39 91-25-24-39-54-39-91" fill="#f8faf7"/>
</svg>
