<svg xmlns="http://www.w3.org/2000/svg" viewBox="0 0 820 220" role="img" aria-label="Imobiliaria Rio dos Passos">
  <rect width="820" height="220" fill="#fff"/>
  <circle cx="105" cy="110" r="94" fill="#d36467"/>
  <circle cx="105" cy="110" r="84" fill="none" stroke="#5c171b" stroke-width="8"/>
  <circle cx="105" cy="110" r="76" fill="none" stroke="#2d1e1f" stroke-width="2"/>
  <path d="M26 139c63 18 132 9 196-33-45 48-126 68-196 33Z" fill="#5c171b"/>
  <path d="M56 121V86l31-30 39 39 53-55 50 49" fill="none" stroke="#5c171b" stroke-width="13" stroke-linejoin="miter"/>
  <path d="M126 94h18v18h-18zM150 94h18v18h-18zM150 118h18v18h-18zM126 118h18v18h-18zM180 81h14v14h-14zM199 81h14v14h-14zM180 100h14v14h-14zM199 100h14v14h-14z" fill="#5c171b"/>
  <path d="M32 181c55-24 111-25 165-2" fill="none" stroke="#5c171b" stroke-width="5"/>
  <path d="M41 188c47-16 96-16 146-1" fill="none" stroke="#5c171b" stroke-width="4"/>
  <text x="258" y="108" fill="#5c171b" font-family="Georgia, 'Times New Roman', serif" font-size="72" letter-spacing="6">IMOBILIARIA</text>
  <text x="262" y="176" fill="#5c171b" font-family="Georgia, 'Times New Roman', serif" font-size="48" letter-spacing="15">Rio dos Passos</text>
</svg>
